<svg width="20" height="18" viewBox="0 0 20 18" fill="none" xmlns="http://www.w3.org/2000/svg">
<path d="M15.9726 2.6113C14.9702 4.90152 14.0597 6.56528 12.2268 8.17631C9.89664 8.34534 9.89664 8.34534 8.47685 6.85061C7.9275 4.8636 8.11658 4.18224 9.6113 2.76245C11.5983 2.2131 13.4533 3.46169 15.9726 2.6113Z" fill="black"/>
<path d="M8.54502 5.60299C8.43933 5.52207 8.30574 5.48664 8.17384 5.50454C8.04194 5.52244 7.92262 5.59219 7.84232 5.69834L0.655599 15.1983C0.575378 15.3044 0.5407 15.438 0.559232 15.5697C0.577763 15.7014 0.647978 15.8202 0.754352 15.9L2.75435 17.4C2.96808 17.5603 3.27008 17.5243 3.44007 17.3181L11.0089 8.1418C11.0953 8.03707 11.1353 7.90172 11.1199 7.76685C11.1045 7.63197 11.0349 7.50916 10.9271 7.42664L8.54502 5.60299Z" fill="#32241F" stroke="#32241F" stroke-linejoin="round"/>
<path d="M19.5 3C19.5 3.65982 19.1803 3.95316 18.8937 3.4958C18.5803 2.9958 18.6803 2.45316 18.3937 1.9958C18.6803 1.95316 18.8309 2.03844 19.107 2.03844C19.3937 2.4958 19.2867 2.95736 19.5 3Z" fill="#0C6815"/>
<path d="M18 1.5C18 1.77614 17.7761 2 17.5 2C17 1.5 16.5 2.77614 16.5 2.5C16.5 2.22386 16.5 1.5 17.5 1C17.7761 1 18 1.22386 18 1.5Z" fill="#0C6815"/>
</svg>
